# xmcd CD database file
# Copyright (C) 1995 Ti Kan
#
# Track frame offsets:
#	150
#	7092
#	13330
#	19107
#	23092
#	26405
#	30860
#	37255
#	57305
#	72452
#	77207
#	81555
#	86440
#	93530
#	101362
#	115400
#
# Disc length: 1714 seconds
#
# Revision: 1
# Processed by: cddbd v1.4b41PL1 Copyright (c) Steve Scherf et al.
# Submitted via: xmcd 1.4
#
DISCID=ca06b010
DTITLE=Leadbelly - Storyteller Blues
DYEAR=1900
DGENRE=
TTITLE0=Noted Rider
TTITLE1=Big Fat Woman
TTITLE2=Burrow Love and Go
TTITLE3=Bring Me Li'l Water Silvy
TTITLE4=Julie Ann Johnson
TTITLE5=Line 'Em
TTITLE6=Whoe Back Buck
TTITLE7=John Hardy
TTITLE8=The Bourgeois Blues
TTITLE9=Looky, Looky Yonder
TTITLE10=Black Betty
TTITLE11=Yellow Woman's Doorbells
TTITLE12=Poor Howard
TTITLE13=Green Corn
TTITLE14=The Gallis Pole
TTITLE15=Dekalb Woman
EXTD=All songs traditional and in the public domain.\n\nAll songs perfo
EXTD=rmed by Huddie (Leadbelly) Ledbetter\n\nThis compilation published
EXTD=by Drive Entertainment, Inc.\n\tDE2-41002\n
EXTT0=
EXTT1=
EXTT2=
EXTT3=
EXTT4=
EXTT5=
EXTT6=
EXTT7=
EXTT8=
EXTT9=
EXTT10=
EXTT11=
EXTT12=
EXTT13=
EXTT14=
EXTT15=
PLAYORDER=
